<?xml version="1.0" encoding="utf-8"?>
<!-- Generator: Adobe Illustrator 22.0.1, SVG Export Plug-In . SVG Version: 6.00 Build 0)  -->
<svg version="1.1" id="Ebene_1" xmlns="http://www.w3.org/2000/svg" xmlns:xlink="http://www.w3.org/1999/xlink" x="0px" y="0px"
	 viewBox="0 0 425.2 425.2" style="enable-background:new 0 0 425.2 425.2;" xml:space="preserve">
<style type="text/css">
	.st0{fill:#EAF5FD;stroke:#11642E;stroke-width:2;stroke-miterlimit:10;}
	.st1{fill:#EA5052;}
	.st2{fill:#13341D;}
	.st3{fill:#11642E;}
	.st4{fill:#EAF5FD;stroke:#13341D;stroke-miterlimit:10;}
</style>
<polygon class="st0" points="304.4,286.4 204.8,344.8 104.5,287.7 103.7,172.3 203.3,113.9 303.7,171 "/>
<g id="layer1" transform="translate(25.970564,-71.796083)">
	<g id="g1257" transform="matrix(-0.20096589,0.07709938,0.07247036,0.18889998,199.53354,-21.648464)">
		<g id="g5054" transform="matrix(-1.1968784,0.29792981,0.28004221,1.2733285,2558.878,-552.10207)">
			<path id="path4643" class="st1" d="M1939.4,951c439.3,91.7-26.1,539.2-111.6,510.7C1742.2,1433.1,1477.6,849.7,1939.4,951
				L1939.4,951z"/>
			<path id="path4845" class="st2" d="M2006.4,1006.9c4.8,17.3,9,34.6,3.7,51.4c-33-10.5-56-32.2-84-48.4
				c-28.7,3.7-48.8,12.5-87.3,10.1c-1.3-17.1,10.1-29.8,17.5-44c-31.7-3.9-56.5-18-82.3-30.7c28.4-11.6,58.7-9.4,88.4-13.1
				c-3.7-7.7-9.8-15.8-6.8-22.6c36.8,12.5,53.8,28.2,80.5,42.3c27.2-6.3,50.3-17.9,85.4-17.7c1.3,14.4-5.9,21.7-9.9,31.7
				c23.6,15.8,49,26.3,70.5,47.9C2056.8,1019.1,2031.6,1009.5,2006.4,1006.9L2006.4,1006.9z"/>
			<path id="path4645" class="st3" d="M2006.2,999.7c4.8,17.3,9,34.6,3.7,51.4c-33-10.5-56-32.2-84-48.4
				c-28.7,3.7-48.8,12.5-87.3,10.1c-1.3-17.1,10.1-29.8,17.5-44c-31.7-3.9-56.5-18-82.3-30.7c28.4-11.6,58.7-9.4,88.4-13.1
				c-3.7-7.7-9.8-15.8-6.8-22.6c36.8,12.5,53.8,28.2,80.5,42.3c27.2-6.3,50.3-17.9,85.4-17.7c1.3,14.4-5.9,21.7-9.9,31.7
				c23.6,15.8,49,26.3,70.5,47.9C2056.6,1011.9,2031.4,1002.3,2006.2,999.7L2006.2,999.7z"/>
			<path id="path4647" class="st2" d="M1936.8,982.4c5-9.2,24.9-129.4-46-184.8c-10.3-3.5-24.3,0.7-25.2,6.8
				c38.7,26,73.5,90,64.1,180.2C1931.6,985.6,1935.3,983.4,1936.8,982.4L1936.8,982.4z"/>
		</g>
	</g>
</g>
<g>
	<path class="st4" d="M177.4,221.1c-12.3,6.1-26.3,10.9-37.6,11c7,43.1,11,59.8,37.6,73.5c26.7-13.6,30.6-30.4,37.6-73.5
		C203.7,231.9,189.9,227.1,177.4,221.1L177.4,221.1z"/>
	<path class="st3" d="M177.4,221.8v41.4h30.9c2-8.5,3.9-18.4,5.7-30.6C203.1,232.5,189.5,227.7,177.4,221.8L177.4,221.8z
		 M177.4,263.2h-30.9c5.2,20.8,12.5,31.9,30.9,41.4V263.2z"/>
</g>
</svg>
