<?xml version="1.0" encoding="utf-8"?>
<!-- Generator: Adobe Illustrator 22.0.1, SVG Export Plug-In . SVG Version: 6.00 Build 0)  -->
<svg version="1.1" id="Ebene_1" xmlns="http://www.w3.org/2000/svg" xmlns:xlink="http://www.w3.org/1999/xlink" x="0px" y="0px"
	 viewBox="0 0 425.2 425.2" style="enable-background:new 0 0 425.2 425.2;" xml:space="preserve">
<style type="text/css">
	.st0{fill:#EBF6FF;stroke:#000000;stroke-width:2;stroke-miterlimit:10;}
	.st1{fill:#B47A53;}
	.st2{fill:#FF4E4E;}
	.st3{fill:#033410;}
	.st4{fill:#06631F;}
	.st5{fill:#C8AB37;}
	.st6{fill:#EBF6FF;stroke:#033410;stroke-miterlimit:10;}
	.st7{opacity:0.32;}
	.st8{fill:#FFFFFF;}
</style>
<g id="Ebene_1_1_">
	<polygon class="st0" points="302.2,213.1 216.9,263 131.1,214.2 130.4,115.4 215.7,65.5 301.5,114.3 	"/>
	<g id="layer1_1_" transform="translate(25.970564,-71.796083)">
		<g id="g1257_1_" transform="matrix(-0.20096589,0.07709938,0.07247036,0.18889998,199.53354,-21.648464)">
			<g id="g4641_1_" transform="matrix(-0.88115178,0.91178029,0.85703736,0.93743499,1934.82,-1042.8135)">
				<path id="path4559_1_" class="st1" d="M2212.1,455.6c-16.4-6.3-10.7,19.5-7.2,20.5C2208.3,476.9,2229.4,462.1,2212.1,455.6z"/>
				<path id="path4561_1_" class="st1" d="M2197.9,517.9c-11.3-3.6-8.8,15-6.3,15.4C2193.8,533.8,2209.9,521.7,2197.9,517.9z"/>
			</g>
			<g id="g5054_1_" transform="matrix(-1.1968784,0.29792981,0.28004221,1.2733285,2558.878,-552.10207)">
				<path id="path4643_1_" class="st2" d="M2009.7,740c375.9,78.5-22.4,461.5-95.5,437C1841,1152.6,1614.6,653.3,2009.7,740
					L2009.7,740z"/>
				<path id="path4845_1_" class="st3" d="M2067.1,788c4.1,14.8,7.7,29.6,3.2,44c-28.2-9-47.9-27.6-71.8-41.4
					c-24.6,3.2-41.7,10.7-74.7,8.7c-1.1-14.7,8.7-25.5,15-37.7c-27.1-3.3-48.4-15.4-70.4-26.3c24.3-9.9,50.3-8,75.6-11.2
					c-3.2-6.6-8.4-13.5-5.8-19.4c31.5,10.7,46,24.1,68.8,36.2c23.3-5.4,43-15.3,73.1-15.1c1.1,12.3-5,18.6-8.5,27.1
					c20.2,13.5,41.9,22.5,60.3,41C2110.2,798.4,2088.7,790.2,2067.1,788L2067.1,788z"/>
				<path id="path4645_1_" class="st4" d="M2066.9,781.7c4.1,14.8,7.7,29.6,3.2,44c-28.2-9-47.9-27.6-71.8-41.4
					c-24.6,3.2-41.7,10.7-74.7,8.7c-1.1-14.7,8.7-25.5,15-37.7c-27.1-3.3-48.4-15.4-70.4-26.3c24.3-9.9,50.3-8,75.6-11.2
					c-3.2-6.6-8.4-13.5-5.8-19.4c31.5,10.7,46,24.1,68.8,36.2c23.3-5.4,43-15.3,73.1-15.1c1.1,12.3-5,18.6-8.5,27.1
					c20.2,13.5,41.9,22.5,60.3,41C2110.1,792.3,2088.5,783.9,2066.9,781.7L2066.9,781.7z"/>
				<path id="path4647_1_" class="st3" d="M2007.5,766.9c4.3-7.9,21.3-110.8-39.4-158.2c-8.8-3-20.8,0.6-21.6,5.8
					c33.1,22.2,62.9,77,54.8,154.2C2003.1,769.6,2006.3,767.7,2007.5,766.9L2007.5,766.9z"/>
				<path id="path4657_1_" class="st5" d="M1990.7,993.8c11.3,8.7-9,14.7-11,12.6C1977.7,1004.5,1978.9,984.6,1990.7,993.8z"/>
				<path id="path4659_1_" class="st5" d="M1990.7,993.8c11.3,8.7-9,14.7-11,12.6C1977.7,1004.5,1978.9,984.6,1990.7,993.8z"/>
				<path id="path4663_1_" class="st5" d="M1830.6,837.6c-14.2-0.3-2,17,0.8,16.7C1834.2,854,1845.6,837.8,1830.6,837.6z"/>
				<path id="path4665_1_" class="st5" d="M1878.8,864.7c-14.2-0.3-2,17,0.8,16.7C1882.4,881.1,1893.6,864.9,1878.8,864.7z"/>
				<path id="path4667_1_" class="st5" d="M1834.4,925.4c-14.2-0.3-2,17,0.8,16.7C1838,941.8,1849.4,925.4,1834.4,925.4z"/>
				<path id="path4669_1_" class="st5" d="M1882.3,965.2c-14.2-0.3-2,17,0.8,16.7C1885.9,981.6,1897.2,965.2,1882.3,965.2z"/>
				<path id="path4671_1_" class="st5" d="M1882.3,965.2c-14.2-0.3-2,17,0.8,16.7C1885.9,981.6,1897.2,965.2,1882.3,965.2z"/>
				<path id="path4677_1_" class="st5" d="M2009.3,886c7.4,6.1-6.6,11.5-7.9,10.1C2000.1,894.8,2001.5,879.4,2009.3,886z"/>
				<path id="path4681_1_" class="st5" d="M1990.7,960.7c7.4,6.1-6.6,11.5-7.9,10.1C1981.5,969.3,1983.1,954.1,1990.7,960.7z"/>
				<path id="path4683_1_" class="st5" d="M1990.7,960.7c7.4,6.1-6.6,11.5-7.9,10.1C1981.5,969.3,1983.1,954.1,1990.7,960.7z"/>
				<path id="path4687_1_" class="st5" d="M1887.6,846c-9.6,0.3-2,13.2,0,12.9C1889.4,858.6,1897.7,845.5,1887.6,846z"/>
				<path id="path4689_1_" class="st5" d="M1937.7,867.6c-9.6,0.3-2,13.2,0,12.9C1939.5,880.2,1947.8,867.1,1937.7,867.6z"/>
				<path id="path4691_1_" class="st5" d="M1887,913.6c-9.6,0.3-2,13.2,0,12.9C1888.9,926,1897.1,913.1,1887,913.6z"/>
				<path id="path4693_1_" class="st5" d="M1918,942.6c-9.6,0.3-2,13.2,0,12.9C1919.9,955,1928.3,942.1,1918,942.6z"/>
				<path id="path4695_1_" class="st5" d="M1931.3,976.7c-9.6,0.3-2,13.2,0,12.9C1933.2,989.4,1941.4,976.3,1931.3,976.7z"/>
				<path id="path4697_1_" class="st5" d="M1896.1,1024.2c-14.2-0.3-2,17,0.8,16.7C1899.8,1040.6,1911,1024.2,1896.1,1024.2z"/>
				<path id="path4699_1_" class="st5" d="M1882,1074.1c-9.6,0.3-2,13.2,0,12.9C1883.9,1086.7,1892,1073.6,1882,1074.1z"/>
				<path id="path4701_1_" class="st5" d="M1845.1,986.8c-9.6,0.3-2,13.2,0,12.9C1847,999.3,1855.3,986.4,1845.1,986.8z"/>
				<path id="path4703_1_" class="st5" d="M1921.8,1070c-9.6,0.3-2,13.2,0,12.9C1923.7,1082.6,1931.9,1069.5,1921.8,1070z"/>
				<path id="path4709_1_" class="st5" d="M1928.4,1127.8c7.4,6.1-6.6,11.5-7.9,10.1C1919.3,1136.5,1920.9,1121.2,1928.4,1127.8z"/>
				<path id="path4717_1_" class="st5" d="M1957.6,1056.2c7.4,6.1-6.6,11.5-7.9,10.1C1948.3,1064.8,1949.9,1049.4,1957.6,1056.2z"/>
				<path id="path4729_1_" class="st5" d="M1834.4,887.6c-9.6,0.3-2,13.2,0,12.9C1836.1,900.2,1844.5,887.1,1834.4,887.6z"/>
				<path id="path4731_1_" class="st5" d="M1949.2,1005.1c-14.2-0.3-2,17,0.8,16.7C1952.9,1021.6,1964.2,1005.3,1949.2,1005.1z"/>
				<path id="path4733_1_" class="st5" d="M1966.7,917.7c14.2-0.2,3.2,17,0.3,16.7C1964.4,934.1,1951.9,917.7,1966.7,917.7z"/>
				<g>
					<path id="path4649_1_" class="st5" d="M2113.9,860c11.3,8.7-9,14.7-11,12.6C2101,870.7,2102.1,850.9,2113.9,860z"/>
					<path id="path4651_1_" class="st5" d="M2110.2,925.7c11.3,8.7-9,14.7-11,12.6C2097.3,936.4,2098.4,916.6,2110.2,925.7z"/>
					<path id="path4653_1_" class="st5" d="M2055.7,917c11.3,8.7-9,14.7-11,12.6C2042.7,927.8,2043.9,907.9,2055.7,917L2055.7,917z"
						/>
					<path id="path4655_1_" class="st5" d="M2052.9,992.2c11.3,8.7-9,14.7-11,12.6C2040,1002.9,2041.1,983.1,2052.9,992.2z"/>
					<path id="path4661_1_" class="st5" d="M1868.4,783.8c-14.2-0.3-2,17,0.8,16.7C1872,800.3,1883.4,783.9,1868.4,783.8z"/>
					<path id="path4673_1_" class="st5" d="M2056.7,850.9c7.4,6.1-6.6,11.5-7.9,10.1C2047.5,859.5,2049,844.3,2056.7,850.9z"/>
					<path id="path4675_1_" class="st5" d="M2073.5,888.7c7.4,6.1-6.6,11.5-7.9,10.1C2064.2,897.3,2065.8,882.1,2073.5,888.7z"/>
					<path id="path4679_1_" class="st5" d="M2033,957.2c7.4,6.1-6.6,11.5-7.9,10.1C2023.9,965.9,2025.3,950.4,2033,957.2z"/>
					<path id="path4685_1_" class="st5" d="M1923.7,810.5c-9.6,0.3-2,13.2,0,12.9C1925.6,823,1933.8,810.1,1923.7,810.5z"/>
					<path id="path4705_1_" class="st5" d="M2007.5,1091.1c11.3,8.7-9,14.7-11,12.6C1994.6,1101.8,1995.7,1082,2007.5,1091.1z"/>
					<path id="path4707_1_" class="st5" d="M1970.8,1124.4c7.4,6.1-6.6,11.5-7.9,10.1C1961.7,1133,1963.3,1117.8,1970.8,1124.4z"/>
					<path id="path4711_1_" class="st5" d="M1928.4,1127.8c7.4,6.1-6.6,11.5-7.9,10.1C1919.3,1136.5,1920.9,1121.2,1928.4,1127.8z"
						/>
					<path id="path4713_1_" class="st5" d="M2026.7,1036c11.3,8.7-9,14.7-11,12.6S2014.9,1026.7,2026.7,1036z"/>
					<path id="path4715_1_" class="st5" d="M2000,1052.5c7.4,6.1-6.6,11.5-7.9,10.1C1990.7,1061.4,1992.2,1045.9,2000,1052.5z"/>
					<path id="path4719_1_" class="st5" d="M2113.6,972.8c7.4,6.1-6.6,11.5-7.9,10.1C2104.3,981.5,2105.8,966.2,2113.6,972.8
						L2113.6,972.8z"/>
					<path id="path4721_1_" class="st5" d="M2072.1,1026.2c7.4,6.1-6.6,11.5-7.9,10.1C2063,1034.9,2064.6,1019.4,2072.1,1026.2z"/>
					<path id="path4723_1_" class="st5" d="M2115.1,897.3c7.4,6.1-6.6,11.5-7.9,10.1C2105.8,906,2107.4,890.7,2115.1,897.3z"/>
					<path id="path4725_1_" class="st5" d="M2073.7,950.6c7.4,6.1-6.6,11.5-7.9,10.1C2064.6,959.3,2066,944,2073.7,950.6z"/>
					<path id="path4727_1_" class="st5" d="M2152,878c7.4,6.1-6.6,11.5-7.9,10.1C2142.7,886.6,2144.3,871.2,2152,878z"/>
					<path id="path4735_1_" class="st5" d="M2010.2,841.9c7.4,6.1-6.6,11.5-7.9,10.1C2001.1,850.6,2002.5,835.3,2010.2,841.9z"/>
				</g>
				<path id="path4737_1_" class="st5" d="M1962.6,846.6c-9.6,0.3-2,13.2,0,12.9C1964.4,859.1,1972.7,846.1,1962.6,846.6z"/>
			</g>
		</g>
	</g>
	<g>
		<path class="st6" d="M193.4,157.2c-10.6,5.2-22.5,9.3-32.1,9.5c6,36.9,9.5,51.2,32.1,62.9c22.8-11.7,26.2-26,32.1-62.9
			C216,166.5,204.2,162.4,193.4,157.2L193.4,157.2z"/>
		<path class="st4" d="M193.4,157.8v35.4h26.5c1.7-7.2,3.3-15.8,4.9-26.2C215.5,166.9,203.8,162.8,193.4,157.8L193.4,157.8z
			 M193.4,193.2H167c4.4,17.8,10.7,27.3,26.5,35.4v-35.4H193.4z"/>
	</g>
</g>
<g id="Ebene_2_1_">
	<g class="st7">
		<g>
			<path class="st8" d="M267-145.5c6.4,0,6.4-10,0-10S260.6-145.5,267-145.5L267-145.5z"/>
		</g>
	</g>
</g>
<g>
	<path d="M36.9,309.8v-10.9h3.8v2.7c1.8,3.3,4.2,4.9,7.1,4.9c1.5,0,2.7-0.5,3.8-1.4c1-0.9,1.5-2.1,1.5-3.6c0-1.4-0.4-2.4-1.3-3.1
		c-0.8-0.6-2.4-1.2-4.7-1.9c-2.7-0.7-4.7-1.4-6-2c-1.3-0.6-2.3-1.6-3.1-2.7c-0.8-1.2-1.2-2.6-1.2-4.2c0-2.5,0.8-4.5,2.5-6
		c1.7-1.5,3.8-2.3,6.3-2.3c2.4,0,4.6,0.8,6.7,2.3v-2H56v9.1h-3.7v-2.1c-1.5-2.3-3.7-3.5-6.4-3.5c-1.6,0-2.9,0.4-3.8,1.1
		c-0.9,0.8-1.3,1.7-1.3,2.7c0,0.8,0.2,1.5,0.7,2.1c0.4,0.6,1,1.1,1.7,1.3c0.7,0.3,2.1,0.7,4.1,1.2c2.6,0.7,4.6,1.3,5.8,1.9
		c1.2,0.6,2.2,1.6,3.1,3c0.9,1.4,1.3,3,1.3,4.8c0,2.6-0.9,4.7-2.7,6.3c-1.8,1.7-4,2.5-6.7,2.5c-2.7,0-5.2-1-7.4-3v2.5H36.9z"/>
	<path d="M60.2,292.5v-3.6h2.7v-3.2l4.1-3.8v7h3.9v3.6H67v10.1c0,1.6,0.1,2.6,0.3,3c0.2,0.4,0.6,0.6,1.3,0.6c0.8,0,1.5-0.1,2.2-0.4
		v3.7c-1.1,0.4-2.1,0.6-3.2,0.6c-1.3,0-2.3-0.3-3-0.8c-0.8-0.6-1.3-1.2-1.5-2.1c-0.2-0.8-0.3-2.3-0.3-4.3v-10.4H60.2z"/>
	<path d="M77.4,306.1v-13.6h-4.2v-3.6h7.5v4.7c0.5-1.2,1.1-2.2,1.9-3c0.8-0.8,1.7-1.3,2.6-1.6c0.9-0.3,2.2-0.4,3.7-0.4H90v4.1h-0.8
		c-2.1,0-3.6,0.2-4.7,0.6c-1,0.4-1.8,1.2-2.3,2.3c-0.5,1.1-0.7,3.1-0.7,5.9v4.6H86v3.6H73.2v-3.6H77.4z"/>
	<path d="M112.4,306.1v3.6h-7.2v-2.5c-2,1.9-4.2,2.9-6.6,2.9c-1.9,0-3.6-0.6-5-1.9c-1.4-1.2-2.1-2.8-2.1-4.7c0-1.9,0.7-3.6,2.2-4.8
		c1.5-1.3,3.3-1.9,5.4-1.9c2,0,3.8,0.6,5.7,1.8v-2.1c0-1.1-0.1-1.9-0.3-2.5c-0.2-0.6-0.7-1.1-1.4-1.6c-0.7-0.5-1.7-0.7-2.9-0.7
		c-2.1,0-3.5,0.8-4.5,2.5l-3.9-1c1.7-3.3,4.7-4.9,9-4.9c1.6,0,2.9,0.2,4.1,0.6c1.1,0.4,2,1,2.6,1.6c0.6,0.7,0.9,1.4,1.1,2.2
		s0.3,2,0.3,3.7v9.7H112.4z M104.9,302c-1.8-1.4-3.6-2.1-5.4-2.1c-1.1,0-2.1,0.3-2.8,1c-0.8,0.7-1.1,1.5-1.1,2.6c0,1,0.3,1.8,1,2.5
		c0.7,0.7,1.6,1,2.7,1c2,0,3.9-0.8,5.6-2.5V302z"/>
	<path d="M120.2,310.1l-5.6-17.6h-2.5v-3.6h8.8v3.6h-2.7l4,12.6l4-12.6h-2.3v-3.6h10.1v3.6h-2.3l4,12.6l4-12.6h-2.9v-3.6h9.4v3.6h-3
		l-5.6,17.6h-3.9l-4.8-15.1l-4.9,15.1H120.2z"/>
	<path d="M147.4,309.8v-3.6h3.7v-22.7h-3.7v-3.6h7.7v12.1c2.1-2.4,4.6-3.5,7.6-3.5c2.9,0,5.3,1,7.2,3c1.9,2,2.9,4.6,2.9,7.8
		c0,3.1-1,5.7-2.9,7.8c-1.9,2.1-4.3,3.2-7.3,3.2c-1.7,0-3.2-0.4-4.6-1.1c-1.4-0.7-2.4-1.5-3-2.4v3.1H147.4z M155.2,299.4
		c0,2.2,0.7,3.9,2,5.2c1.3,1.3,2.9,1.9,4.6,1.9c1.8,0,3.4-0.7,4.7-2c1.3-1.4,2-3.2,2-5.4c0-2.2-0.7-3.9-2-5.1
		c-1.3-1.2-2.9-1.8-4.6-1.8c-1.7,0-3.3,0.6-4.7,1.9C155.9,295.2,155.2,297,155.2,299.4z"/>
	<path d="M198.4,300.4h-17.6c0.3,1.9,1,3.5,2.3,4.7c1.3,1.2,2.9,1.8,4.9,1.8c2.9,0,5.1-1.2,6.8-3.5l3.6,1.6
		c-1.2,1.8-2.7,3.2-4.6,4.1c-1.9,0.9-3.9,1.3-5.9,1.3c-3.2,0-5.9-1-8.2-3c-2.3-2-3.4-4.7-3.4-8.1c0-3.2,1.1-5.8,3.3-7.9
		c2.2-2.1,4.7-3.1,7.6-3.1c2.8,0,5.3,1,7.6,3C197.2,293.4,198.4,296.4,198.4,300.4z M194.2,297.4c-0.3-1.5-1.1-2.8-2.3-4
		c-1.2-1.2-2.8-1.8-4.6-1.8c-1.6,0-3,0.5-4.2,1.6c-1.2,1.1-1.9,2.5-2.1,4.2H194.2z"/>
	<path d="M205.3,306.1v-13.6h-4.2v-3.6h7.5v4.7c0.5-1.2,1.1-2.2,1.9-3c0.8-0.8,1.7-1.3,2.6-1.6c0.9-0.3,2.2-0.4,3.7-0.4h1.1v4.1
		h-0.8c-2.1,0-3.6,0.2-4.7,0.6c-1,0.4-1.8,1.2-2.3,2.3c-0.5,1.1-0.7,3.1-0.7,5.9v4.6h4.6v3.6h-12.9v-3.6H205.3z"/>
	<path d="M224.4,306.1v-13.6h-4.2v-3.6h7.5v4.7c0.5-1.2,1.1-2.2,1.9-3c0.8-0.8,1.7-1.3,2.6-1.6c0.9-0.3,2.2-0.4,3.7-0.4h1.1v4.1
		h-0.8c-2.1,0-3.6,0.2-4.7,0.6c-1,0.4-1.8,1.2-2.3,2.3c-0.5,1.1-0.7,3.1-0.7,5.9v4.6h4.6v3.6h-12.9v-3.6H224.4z"/>
	<path d="M249,309.4l-6.9-16.9h-3.5v-3.6H249v3.6h-2.5l4.5,11.6l4.4-11.6h-2.8v-3.6h10.1v3.6h-3.1l-10.3,26.6h-6.9v-3.6h4.1
		L249,309.4z"/>
	<path d="M275.8,309.8v-10.9h3.8v2.7c1.8,3.3,4.2,4.9,7.1,4.9c1.5,0,2.7-0.5,3.8-1.4c1-0.9,1.5-2.1,1.5-3.6c0-1.4-0.4-2.4-1.3-3.1
		c-0.8-0.6-2.4-1.2-4.7-1.9c-2.7-0.7-4.7-1.4-6-2c-1.3-0.6-2.3-1.6-3.1-2.7c-0.8-1.2-1.2-2.6-1.2-4.2c0-2.5,0.8-4.5,2.5-6
		c1.7-1.5,3.8-2.3,6.3-2.3c2.4,0,4.6,0.8,6.7,2.3v-2h3.7v9.1h-3.7v-2.1c-1.5-2.3-3.7-3.5-6.4-3.5c-1.6,0-2.9,0.4-3.8,1.1
		c-0.9,0.8-1.3,1.7-1.3,2.7c0,0.8,0.2,1.5,0.7,2.1c0.4,0.6,1,1.1,1.7,1.3c0.7,0.3,2.1,0.7,4.1,1.2c2.6,0.7,4.6,1.3,5.8,1.9
		c1.2,0.6,2.2,1.6,3.1,3c0.9,1.4,1.3,3,1.3,4.8c0,2.6-0.9,4.7-2.7,6.3c-1.8,1.7-4,2.5-6.7,2.5c-2.7,0-5.2-1-7.4-3v2.5H275.8z"/>
	<path d="M320.6,306.1v3.6h-7.2v-2.5c-2,1.9-4.2,2.9-6.6,2.9c-1.9,0-3.6-0.6-5-1.9c-1.4-1.2-2.1-2.8-2.1-4.7c0-1.9,0.7-3.6,2.2-4.8
		c1.5-1.3,3.3-1.9,5.4-1.9c2,0,3.8,0.6,5.7,1.8v-2.1c0-1.1-0.1-1.9-0.3-2.5c-0.2-0.6-0.7-1.1-1.4-1.6c-0.7-0.5-1.7-0.7-2.9-0.7
		c-2.1,0-3.5,0.8-4.5,2.5l-3.9-1c1.7-3.3,4.7-4.9,9-4.9c1.6,0,2.9,0.2,4.1,0.6c1.1,0.4,2,1,2.6,1.6s0.9,1.4,1.1,2.2s0.3,2,0.3,3.7
		v9.7H320.6z M313,302c-1.8-1.4-3.6-2.1-5.4-2.1c-1.1,0-2.1,0.3-2.8,1c-0.8,0.7-1.1,1.5-1.1,2.6c0,1,0.3,1.8,1,2.5
		c0.7,0.7,1.6,1,2.7,1c2,0,3.9-0.8,5.6-2.5V302z"/>
	<path d="M330.7,310.1l-6.8-17.6h-3.7v-3.6h10.5v3.6H328l4.5,11.8l4.5-11.8h-2.9v-3.6h10.2v3.6h-3.2l-6.7,17.6H330.7z"/>
	<path d="M366.8,300.4h-17.6c0.3,1.9,1,3.5,2.3,4.7c1.3,1.2,2.9,1.8,4.9,1.8c2.9,0,5.1-1.2,6.8-3.5l3.6,1.6
		c-1.2,1.8-2.7,3.2-4.6,4.1c-1.9,0.9-3.9,1.3-5.9,1.3c-3.2,0-5.9-1-8.2-3c-2.3-2-3.4-4.7-3.4-8.1c0-3.2,1.1-5.8,3.3-7.9
		c2.2-2.1,4.7-3.1,7.6-3.1c2.8,0,5.3,1,7.6,3C365.5,293.4,366.7,296.4,366.8,300.4z M362.6,297.4c-0.3-1.5-1.1-2.8-2.3-4
		c-1.2-1.2-2.8-1.8-4.6-1.8c-1.6,0-3,0.5-4.2,1.6c-1.2,1.1-1.9,2.5-2.1,4.2H362.6z"/>
	<path d="M373.6,306.1v-13.6h-4.2v-3.6h7.5v4.7c0.5-1.2,1.1-2.2,1.9-3c0.8-0.8,1.7-1.3,2.6-1.6c0.9-0.3,2.2-0.4,3.7-0.4h1.1v4.1
		h-0.8c-2.1,0-3.6,0.2-4.7,0.6c-1,0.4-1.8,1.2-2.3,2.3c-0.5,1.1-0.7,3.1-0.7,5.9v4.6h4.6v3.6h-12.9v-3.6H373.6z"/>
</g>
</svg>
